<?xml version="1.0" encoding="UTF-8" standalone="no"?>
<!DOCTYPE svg PUBLIC "-//W3C//DTD SVG 1.1//EN"
 "http://www.w3.org/Graphics/SVG/1.1/DTD/svg11.dtd">
<!-- Generated by graphviz version 2.38.0 (20140413.2041)
 -->
<!-- Title: models_diagram Pages: 1 -->
<svg width="579pt" height="1230pt"
 viewBox="0.00 0.00 578.62 1230.00" xmlns="http://www.w3.org/2000/svg" xmlns:xlink="http://www.w3.org/1999/xlink">
<g id="graph0" class="graph" transform="scale(1 1) rotate(0) translate(4 1226)">
<title>models_diagram</title>
<polygon fill="none" stroke="none" points="-4,4 -4,-1226 574.621,-1226 574.621,4 -4,4"/>
<!-- _diagram_info -->
<g id="node1" class="node"><title>_diagram_info</title>
<text text-anchor="start" x="8" y="-1193.1" font-family="Times New Roman,serif" font-size="13.00">Models diagram</text>
<text text-anchor="start" x="8" y="-1179.1" font-family="Times New Roman,serif" font-size="13.00">Date: May 11 2016 &#45; 03:50</text>
<text text-anchor="start" x="8" y="-1165.1" font-family="Times New Roman,serif" font-size="13.00">Migration version: 20160510230734</text>
<text text-anchor="start" x="8" y="-1151.1" font-family="Times New Roman,serif" font-size="13.00">Generated by RailRoady 1.4.2</text>
<text text-anchor="start" x="8" y="-1137.1" font-family="Times New Roman,serif" font-size="13.00">http://railroady.prestonlee.com</text>
</g>
<!-- Application -->
<g id="node2" class="node"><title>Application</title>
<path fill="none" stroke="black" d="M22.5,-708.5C22.5,-708.5 130.5,-708.5 130.5,-708.5 136.5,-708.5 142.5,-714.5 142.5,-720.5 142.5,-720.5 142.5,-877.5 142.5,-877.5 142.5,-883.5 136.5,-889.5 130.5,-889.5 130.5,-889.5 22.5,-889.5 22.5,-889.5 16.5,-889.5 10.5,-883.5 10.5,-877.5 10.5,-877.5 10.5,-720.5 10.5,-720.5 10.5,-714.5 16.5,-708.5 22.5,-708.5"/>
<text text-anchor="middle" x="76.5" y="-874.3" font-family="Times New Roman,serif" font-size="14.00">Application</text>
<polyline fill="none" stroke="black" points="10.5,-866.5 142.5,-866.5 "/>
<text text-anchor="start" x="18.5" y="-851.3" font-family="Times New Roman,serif" font-size="14.00">id :INTEGER</text>
<text text-anchor="start" x="18.5" y="-836.3" font-family="Times New Roman,serif" font-size="14.00">type :varchar</text>
<text text-anchor="start" x="18.5" y="-821.3" font-family="Times New Roman,serif" font-size="14.00">body :text</text>
<text text-anchor="start" x="18.5" y="-806.3" font-family="Times New Roman,serif" font-size="14.00">created_at :datetime</text>
<text text-anchor="start" x="18.5" y="-791.3" font-family="Times New Roman,serif" font-size="14.00">updated_at :datetime</text>
<text text-anchor="start" x="18.5" y="-776.3" font-family="Times New Roman,serif" font-size="14.00">sender_id :integer</text>
<text text-anchor="start" x="18.5" y="-761.3" font-family="Times New Roman,serif" font-size="14.00">claimer_id :integer</text>
<text text-anchor="start" x="18.5" y="-746.3" font-family="Times New Roman,serif" font-size="14.00">topic_id :integer</text>
<text text-anchor="start" x="18.5" y="-731.3" font-family="Times New Roman,serif" font-size="14.00">status :varchar</text>
<text text-anchor="start" x="18.5" y="-716.3" font-family="Times New Roman,serif" font-size="14.00">reviewer_id :integer</text>
</g>
<!-- PendingApplication -->
<g id="node3" class="node"><title>PendingApplication</title>
<path fill="none" stroke="black" d="M248.5,-144.5C248.5,-144.5 356.5,-144.5 356.5,-144.5 362.5,-144.5 368.5,-150.5 368.5,-156.5 368.5,-156.5 368.5,-313.5 368.5,-313.5 368.5,-319.5 362.5,-325.5 356.5,-325.5 356.5,-325.5 248.5,-325.5 248.5,-325.5 242.5,-325.5 236.5,-319.5 236.5,-313.5 236.5,-313.5 236.5,-156.5 236.5,-156.5 236.5,-150.5 242.5,-144.5 248.5,-144.5"/>
<text text-anchor="middle" x="302.5" y="-310.3" font-family="Times New Roman,serif" font-size="14.00">PendingApplication</text>
<polyline fill="none" stroke="black" points="236.5,-302.5 368.5,-302.5 "/>
<text text-anchor="start" x="244.5" y="-287.3" font-family="Times New Roman,serif" font-size="14.00">id :INTEGER</text>
<text text-anchor="start" x="244.5" y="-272.3" font-family="Times New Roman,serif" font-size="14.00">type :varchar</text>
<text text-anchor="start" x="244.5" y="-257.3" font-family="Times New Roman,serif" font-size="14.00">body :text</text>
<text text-anchor="start" x="244.5" y="-242.3" font-family="Times New Roman,serif" font-size="14.00">created_at :datetime</text>
<text text-anchor="start" x="244.5" y="-227.3" font-family="Times New Roman,serif" font-size="14.00">updated_at :datetime</text>
<text text-anchor="start" x="244.5" y="-212.3" font-family="Times New Roman,serif" font-size="14.00">sender_id :integer</text>
<text text-anchor="start" x="244.5" y="-197.3" font-family="Times New Roman,serif" font-size="14.00">claimer_id :integer</text>
<text text-anchor="start" x="244.5" y="-182.3" font-family="Times New Roman,serif" font-size="14.00">topic_id :integer</text>
<text text-anchor="start" x="244.5" y="-167.3" font-family="Times New Roman,serif" font-size="14.00">status :varchar</text>
<text text-anchor="start" x="244.5" y="-152.3" font-family="Times New Roman,serif" font-size="14.00">reviewer_id :integer</text>
</g>
<!-- ResolvedApplication -->
<g id="node4" class="node"><title>ResolvedApplication</title>
<path fill="none" stroke="black" d="M409.5,-144.5C409.5,-144.5 519.5,-144.5 519.5,-144.5 525.5,-144.5 531.5,-150.5 531.5,-156.5 531.5,-156.5 531.5,-313.5 531.5,-313.5 531.5,-319.5 525.5,-325.5 519.5,-325.5 519.5,-325.5 409.5,-325.5 409.5,-325.5 403.5,-325.5 397.5,-319.5 397.5,-313.5 397.5,-313.5 397.5,-156.5 397.5,-156.5 397.5,-150.5 403.5,-144.5 409.5,-144.5"/>
<text text-anchor="middle" x="464.5" y="-310.3" font-family="Times New Roman,serif" font-size="14.00">ResolvedApplication</text>
<polyline fill="none" stroke="black" points="397.5,-302.5 531.5,-302.5 "/>
<text text-anchor="start" x="405.5" y="-287.3" font-family="Times New Roman,serif" font-size="14.00">id :INTEGER</text>
<text text-anchor="start" x="405.5" y="-272.3" font-family="Times New Roman,serif" font-size="14.00">type :varchar</text>
<text text-anchor="start" x="405.5" y="-257.3" font-family="Times New Roman,serif" font-size="14.00">body :text</text>
<text text-anchor="start" x="405.5" y="-242.3" font-family="Times New Roman,serif" font-size="14.00">created_at :datetime</text>
<text text-anchor="start" x="405.5" y="-227.3" font-family="Times New Roman,serif" font-size="14.00">updated_at :datetime</text>
<text text-anchor="start" x="405.5" y="-212.3" font-family="Times New Roman,serif" font-size="14.00">sender_id :integer</text>
<text text-anchor="start" x="405.5" y="-197.3" font-family="Times New Roman,serif" font-size="14.00">claimer_id :integer</text>
<text text-anchor="start" x="405.5" y="-182.3" font-family="Times New Roman,serif" font-size="14.00">topic_id :integer</text>
<text text-anchor="start" x="405.5" y="-167.3" font-family="Times New Roman,serif" font-size="14.00">status :varchar</text>
<text text-anchor="start" x="405.5" y="-152.3" font-family="Times New Roman,serif" font-size="14.00">reviewer_id :integer</text>
</g>
<!-- Note -->
<g id="node7" class="node"><title>Note</title>
<path fill="none" stroke="black" d="M407,-0.5C407,-0.5 522,-0.5 522,-0.5 528,-0.5 534,-6.5 534,-12.5 534,-12.5 534,-94.5 534,-94.5 534,-100.5 528,-106.5 522,-106.5 522,-106.5 407,-106.5 407,-106.5 401,-106.5 395,-100.5 395,-94.5 395,-94.5 395,-12.5 395,-12.5 395,-6.5 401,-0.5 407,-0.5"/>
<text text-anchor="middle" x="464.5" y="-91.3" font-family="Times New Roman,serif" font-size="14.00">Note</text>
<polyline fill="none" stroke="black" points="395,-83.5 534,-83.5 "/>
<text text-anchor="start" x="403" y="-68.3" font-family="Times New Roman,serif" font-size="14.00">id :INTEGER</text>
<text text-anchor="start" x="403" y="-53.3" font-family="Times New Roman,serif" font-size="14.00">text :text</text>
<text text-anchor="start" x="403" y="-38.3" font-family="Times New Roman,serif" font-size="14.00">created_at :datetime</text>
<text text-anchor="start" x="403" y="-23.3" font-family="Times New Roman,serif" font-size="14.00">updated_at :datetime</text>
<text text-anchor="start" x="403" y="-8.3" font-family="Times New Roman,serif" font-size="14.00">application_id :integer</text>
</g>
<!-- ResolvedApplication&#45;&gt;Note -->
<g id="edge1" class="edge"><title>ResolvedApplication&#45;&gt;Note</title>
<path fill="none" stroke="#69428b" d="M464.5,-136.162C464.5,-129.717 464.5,-123.328 464.5,-117.129"/>
<ellipse fill="none" stroke="#69428b" cx="464.5" cy="-140.25" rx="4" ry="4"/>
<polygon fill="#69428b" stroke="#69428b" points="464.5,-116.901 469,-106.901 464.5,-111.901 464.5,-106.901 464.5,-106.901 464.5,-106.901 464.5,-111.901 460,-106.901 464.5,-116.901 464.5,-116.901"/>
</g>
<!-- Category -->
<g id="node5" class="node"><title>Category</title>
<path fill="none" stroke="black" d="M239.5,-1115.5C239.5,-1115.5 347.5,-1115.5 347.5,-1115.5 353.5,-1115.5 359.5,-1121.5 359.5,-1127.5 359.5,-1127.5 359.5,-1209.5 359.5,-1209.5 359.5,-1215.5 353.5,-1221.5 347.5,-1221.5 347.5,-1221.5 239.5,-1221.5 239.5,-1221.5 233.5,-1221.5 227.5,-1215.5 227.5,-1209.5 227.5,-1209.5 227.5,-1127.5 227.5,-1127.5 227.5,-1121.5 233.5,-1115.5 239.5,-1115.5"/>
<text text-anchor="middle" x="293.5" y="-1206.3" font-family="Times New Roman,serif" font-size="14.00">Category</text>
<polyline fill="none" stroke="black" points="227.5,-1198.5 359.5,-1198.5 "/>
<text text-anchor="start" x="235.5" y="-1183.3" font-family="Times New Roman,serif" font-size="14.00">id :INTEGER</text>
<text text-anchor="start" x="235.5" y="-1168.3" font-family="Times New Roman,serif" font-size="14.00">name :varchar</text>
<text text-anchor="start" x="235.5" y="-1153.3" font-family="Times New Roman,serif" font-size="14.00">discount :integer</text>
<text text-anchor="start" x="235.5" y="-1138.3" font-family="Times New Roman,serif" font-size="14.00">created_at :datetime</text>
<text text-anchor="start" x="235.5" y="-1123.3" font-family="Times New Roman,serif" font-size="14.00">updated_at :datetime</text>
</g>
<!-- User -->
<g id="node12" class="node"><title>User</title>
<path fill="none" stroke="black" d="M239.5,-941.5C239.5,-941.5 347.5,-941.5 347.5,-941.5 353.5,-941.5 359.5,-947.5 359.5,-953.5 359.5,-953.5 359.5,-1065.5 359.5,-1065.5 359.5,-1071.5 353.5,-1077.5 347.5,-1077.5 347.5,-1077.5 239.5,-1077.5 239.5,-1077.5 233.5,-1077.5 227.5,-1071.5 227.5,-1065.5 227.5,-1065.5 227.5,-953.5 227.5,-953.5 227.5,-947.5 233.5,-941.5 239.5,-941.5"/>
<text text-anchor="middle" x="293.5" y="-1062.3" font-family="Times New Roman,serif" font-size="14.00">User</text>
<polyline fill="none" stroke="black" points="227.5,-1054.5 359.5,-1054.5 "/>
<text text-anchor="start" x="235.5" y="-1039.3" font-family="Times New Roman,serif" font-size="14.00">id :INTEGER</text>
<text text-anchor="start" x="235.5" y="-1024.3" font-family="Times New Roman,serif" font-size="14.00">username :varchar</text>
<text text-anchor="start" x="235.5" y="-1009.3" font-family="Times New Roman,serif" font-size="14.00">email :varchar</text>
<text text-anchor="start" x="235.5" y="-994.3" font-family="Times New Roman,serif" font-size="14.00">login :varchar</text>
<text text-anchor="start" x="235.5" y="-979.3" font-family="Times New Roman,serif" font-size="14.00">password :varchar</text>
<text text-anchor="start" x="235.5" y="-964.3" font-family="Times New Roman,serif" font-size="14.00">created_at :datetime</text>
<text text-anchor="start" x="235.5" y="-949.3" font-family="Times New Roman,serif" font-size="14.00">updated_at :datetime</text>
</g>
<!-- Category&#45;&gt;User -->
<g id="edge2" class="edge"><title>Category&#45;&gt;User</title>
<path fill="none" stroke="#d854b1" d="M293.5,-1105.16C293.5,-1099.51 293.5,-1093.74 293.5,-1087.97"/>
<polygon fill="#d854b1" stroke="#d854b1" points="293.5,-1105.22 289,-1115.22 293.5,-1110.22 293.5,-1115.22 293.5,-1115.22 293.5,-1115.22 293.5,-1110.22 298,-1115.22 293.5,-1105.22 293.5,-1105.22"/>
<polygon fill="#d854b1" stroke="#d854b1" points="293.5,-1087.63 298,-1077.63 293.5,-1082.63 293.5,-1077.63 293.5,-1077.63 293.5,-1077.63 293.5,-1082.63 289,-1077.63 293.5,-1087.63 293.5,-1087.63"/>
</g>
<!-- Conference -->
<g id="node6" class="node"><title>Conference</title>
<path fill="none" stroke="black" d="M372.5,-746C372.5,-746 480.5,-746 480.5,-746 486.5,-746 492.5,-752 492.5,-758 492.5,-758 492.5,-840 492.5,-840 492.5,-846 486.5,-852 480.5,-852 480.5,-852 372.5,-852 372.5,-852 366.5,-852 360.5,-846 360.5,-840 360.5,-840 360.5,-758 360.5,-758 360.5,-752 366.5,-746 372.5,-746"/>
<text text-anchor="middle" x="426.5" y="-836.8" font-family="Times New Roman,serif" font-size="14.00">Conference</text>
<polyline fill="none" stroke="black" points="360.5,-829 492.5,-829 "/>
<text text-anchor="start" x="368.5" y="-813.8" font-family="Times New Roman,serif" font-size="14.00">id :INTEGER</text>
<text text-anchor="start" x="368.5" y="-798.8" font-family="Times New Roman,serif" font-size="14.00">name :varchar</text>
<text text-anchor="start" x="368.5" y="-783.8" font-family="Times New Roman,serif" font-size="14.00">description :text</text>
<text text-anchor="start" x="368.5" y="-768.8" font-family="Times New Roman,serif" font-size="14.00">created_at :datetime</text>
<text text-anchor="start" x="368.5" y="-753.8" font-family="Times New Roman,serif" font-size="14.00">updated_at :datetime</text>
</g>
<!-- Topic -->
<g id="node9" class="node"><title>Topic</title>
<path fill="none" stroke="black" d="M232.5,-550.5C232.5,-550.5 348.5,-550.5 348.5,-550.5 354.5,-550.5 360.5,-556.5 360.5,-562.5 360.5,-562.5 360.5,-644.5 360.5,-644.5 360.5,-650.5 354.5,-656.5 348.5,-656.5 348.5,-656.5 232.5,-656.5 232.5,-656.5 226.5,-656.5 220.5,-650.5 220.5,-644.5 220.5,-644.5 220.5,-562.5 220.5,-562.5 220.5,-556.5 226.5,-550.5 232.5,-550.5"/>
<text text-anchor="middle" x="290.5" y="-641.3" font-family="Times New Roman,serif" font-size="14.00">Topic</text>
<polyline fill="none" stroke="black" points="220.5,-633.5 360.5,-633.5 "/>
<text text-anchor="start" x="228.5" y="-618.3" font-family="Times New Roman,serif" font-size="14.00">id :INTEGER</text>
<text text-anchor="start" x="228.5" y="-603.3" font-family="Times New Roman,serif" font-size="14.00">name :varchar</text>
<text text-anchor="start" x="228.5" y="-588.3" font-family="Times New Roman,serif" font-size="14.00">created_at :datetime</text>
<text text-anchor="start" x="228.5" y="-573.3" font-family="Times New Roman,serif" font-size="14.00">updated_at :datetime</text>
<text text-anchor="start" x="228.5" y="-558.3" font-family="Times New Roman,serif" font-size="14.00">conference_id :integer</text>
</g>
<!-- Conference&#45;&gt;Topic -->
<g id="edge3" class="edge"><title>Conference&#45;&gt;Topic</title>
<path fill="none" stroke="#3f7407" d="M385.245,-739.303C368.7,-715.763 349.642,-688.647 332.977,-664.936"/>
<ellipse fill="none" stroke="#3f7407" cx="387.575" cy="-742.618" rx="4.00002" ry="4.00002"/>
<polygon fill="#3f7407" stroke="#3f7407" points="332.94,-664.883 330.871,-654.114 330.065,-660.793 327.19,-656.702 327.19,-656.702 327.19,-656.702 330.065,-660.793 323.508,-659.29 332.94,-664.883 332.94,-664.883"/>
</g>
<!-- ConferenceCreator -->
<g id="node10" class="node"><title>ConferenceCreator</title>
<path fill="none" stroke="black" d="M398.5,-550.5C398.5,-550.5 514.5,-550.5 514.5,-550.5 520.5,-550.5 526.5,-556.5 526.5,-562.5 526.5,-562.5 526.5,-644.5 526.5,-644.5 526.5,-650.5 520.5,-656.5 514.5,-656.5 514.5,-656.5 398.5,-656.5 398.5,-656.5 392.5,-656.5 386.5,-650.5 386.5,-644.5 386.5,-644.5 386.5,-562.5 386.5,-562.5 386.5,-556.5 392.5,-550.5 398.5,-550.5"/>
<text text-anchor="middle" x="456.5" y="-641.3" font-family="Times New Roman,serif" font-size="14.00">ConferenceCreator</text>
<polyline fill="none" stroke="black" points="386.5,-633.5 526.5,-633.5 "/>
<text text-anchor="start" x="394.5" y="-618.3" font-family="Times New Roman,serif" font-size="14.00">id :INTEGER</text>
<text text-anchor="start" x="394.5" y="-603.3" font-family="Times New Roman,serif" font-size="14.00">created_at :datetime</text>
<text text-anchor="start" x="394.5" y="-588.3" font-family="Times New Roman,serif" font-size="14.00">updated_at :datetime</text>
<text text-anchor="start" x="394.5" y="-573.3" font-family="Times New Roman,serif" font-size="14.00">user_id :integer</text>
<text text-anchor="start" x="394.5" y="-558.3" font-family="Times New Roman,serif" font-size="14.00">conference_id :integer</text>
</g>
<!-- Conference&#45;&gt;ConferenceCreator -->
<g id="edge4" class="edge"><title>Conference&#45;&gt;ConferenceCreator</title>
<path fill="none" stroke="#ae7729" d="M435.808,-737.961C439.416,-714.689 443.54,-688.09 447.152,-664.794"/>
<ellipse fill="none" stroke="#ae7729" cx="435.192" cy="-741.938" rx="4.00001" ry="4.00001"/>
<ellipse fill="#ae7729" stroke="#ae7729" cx="447.794" cy="-660.655" rx="4.00001" ry="4.00001"/>
<text text-anchor="middle" x="464.5" y="-678.8" font-family="Times New Roman,serif" font-size="14.00">creator</text>
</g>
<!-- Talk -->
<g id="node8" class="node"><title>Talk</title>
<path fill="none" stroke="black" d="M138.5,-377.5C138.5,-377.5 246.5,-377.5 246.5,-377.5 252.5,-377.5 258.5,-383.5 258.5,-389.5 258.5,-389.5 258.5,-486.5 258.5,-486.5 258.5,-492.5 252.5,-498.5 246.5,-498.5 246.5,-498.5 138.5,-498.5 138.5,-498.5 132.5,-498.5 126.5,-492.5 126.5,-486.5 126.5,-486.5 126.5,-389.5 126.5,-389.5 126.5,-383.5 132.5,-377.5 138.5,-377.5"/>
<text text-anchor="middle" x="192.5" y="-483.3" font-family="Times New Roman,serif" font-size="14.00">Talk</text>
<polyline fill="none" stroke="black" points="126.5,-475.5 258.5,-475.5 "/>
<text text-anchor="start" x="134.5" y="-460.3" font-family="Times New Roman,serif" font-size="14.00">id :INTEGER</text>
<text text-anchor="start" x="134.5" y="-445.3" font-family="Times New Roman,serif" font-size="14.00">name :varchar</text>
<text text-anchor="start" x="134.5" y="-430.3" font-family="Times New Roman,serif" font-size="14.00">created_at :datetime</text>
<text text-anchor="start" x="134.5" y="-415.3" font-family="Times New Roman,serif" font-size="14.00">updated_at :datetime</text>
<text text-anchor="start" x="134.5" y="-400.3" font-family="Times New Roman,serif" font-size="14.00">speaker_id :integer</text>
<text text-anchor="start" x="134.5" y="-385.3" font-family="Times New Roman,serif" font-size="14.00">topic_id :integer</text>
</g>
<!-- Topic&#45;&gt;PendingApplication -->
<g id="edge7" class="edge"><title>Topic&#45;&gt;PendingApplication</title>
<path fill="none" stroke="#e955c5" d="M292.471,-542.288C294.304,-486.306 297.07,-401.851 299.233,-335.793"/>
<ellipse fill="none" stroke="#e955c5" cx="292.338" cy="-546.381" rx="4" ry="4"/>
<polygon fill="#e955c5" stroke="#e955c5" points="299.233,-335.767 304.058,-325.919 299.397,-330.769 299.561,-325.772 299.561,-325.772 299.561,-325.772 299.397,-330.769 295.063,-325.625 299.233,-335.767 299.233,-335.767"/>
</g>
<!-- Topic&#45;&gt;Talk -->
<g id="edge5" class="edge"><title>Topic&#45;&gt;Talk</title>
<path fill="none" stroke="#58e8ea" d="M255.003,-543.278C247.997,-531.589 240.591,-519.233 233.422,-507.273"/>
<ellipse fill="none" stroke="#58e8ea" cx="257.166" cy="-546.887" rx="4.00002" ry="4.00002"/>
<polygon fill="#58e8ea" stroke="#58e8ea" points="233.394,-507.226 232.113,-496.335 230.823,-502.938 228.253,-498.649 228.253,-498.649 228.253,-498.649 230.823,-502.938 224.393,-500.962 233.394,-507.226 233.394,-507.226"/>
</g>
<!-- TopicReviewer -->
<g id="node11" class="node"><title>TopicReviewer</title>
<path fill="none" stroke="black" d="M370.5,-385C370.5,-385 478.5,-385 478.5,-385 484.5,-385 490.5,-391 490.5,-397 490.5,-397 490.5,-479 490.5,-479 490.5,-485 484.5,-491 478.5,-491 478.5,-491 370.5,-491 370.5,-491 364.5,-491 358.5,-485 358.5,-479 358.5,-479 358.5,-397 358.5,-397 358.5,-391 364.5,-385 370.5,-385"/>
<text text-anchor="middle" x="424.5" y="-475.8" font-family="Times New Roman,serif" font-size="14.00">TopicReviewer</text>
<polyline fill="none" stroke="black" points="358.5,-468 490.5,-468 "/>
<text text-anchor="start" x="366.5" y="-452.8" font-family="Times New Roman,serif" font-size="14.00">id :INTEGER</text>
<text text-anchor="start" x="366.5" y="-437.8" font-family="Times New Roman,serif" font-size="14.00">created_at :datetime</text>
<text text-anchor="start" x="366.5" y="-422.8" font-family="Times New Roman,serif" font-size="14.00">updated_at :datetime</text>
<text text-anchor="start" x="366.5" y="-407.8" font-family="Times New Roman,serif" font-size="14.00">user_id :integer</text>
<text text-anchor="start" x="366.5" y="-392.8" font-family="Times New Roman,serif" font-size="14.00">topic_id :integer</text>
</g>
<!-- Topic&#45;&gt;TopicReviewer -->
<g id="edge6" class="edge"><title>Topic&#45;&gt;TopicReviewer</title>
<path fill="none" stroke="#1cfb2c" d="M338.41,-544.043C350.328,-529.501 363.126,-513.885 375.114,-499.258"/>
<ellipse fill="none" stroke="#1cfb2c" cx="335.802" cy="-547.224" rx="4.00002" ry="4.00002"/>
<polygon fill="#1cfb2c" stroke="#1cfb2c" points="375.341,-498.981 385.16,-494.099 378.51,-495.114 381.68,-491.247 381.68,-491.247 381.68,-491.247 378.51,-495.114 378.199,-488.395 375.341,-498.981 375.341,-498.981"/>
<text text-anchor="middle" x="384" y="-520.8" font-family="Times New Roman,serif" font-size="14.00">reviewers</text>
</g>
<!-- TopicReviewer&#45;&gt;PendingApplication -->
<g id="edge9" class="edge"><title>TopicReviewer&#45;&gt;PendingApplication</title>
<path fill="none" stroke="#440f8f" d="M351.818,-394.363C339.673,-384.215 328.454,-372.382 320.5,-359 316.141,-351.666 312.699,-343.665 309.994,-335.376"/>
<ellipse fill="none" stroke="#440f8f" cx="355.121" cy="-397.013" rx="4.00002" ry="4.00002"/>
<polygon fill="#440f8f" stroke="#440f8f" points="309.927,-335.143 311.47,-324.286 308.537,-330.34 307.148,-325.537 307.148,-325.537 307.148,-325.537 308.537,-330.34 302.825,-326.788 309.927,-335.143 309.927,-335.143"/>
<text text-anchor="middle" x="379.5" y="-347.8" font-family="Times New Roman,serif" font-size="14.00">claimed_applications</text>
</g>
<!-- TopicReviewer&#45;&gt;ResolvedApplication -->
<g id="edge8" class="edge"><title>TopicReviewer&#45;&gt;ResolvedApplication</title>
<path fill="none" stroke="#fa6ce3" d="M438.758,-376.571C440.062,-370.642 441.331,-364.71 442.5,-359 444.045,-351.454 445.584,-343.635 447.09,-335.763"/>
<ellipse fill="none" stroke="#fa6ce3" cx="437.832" cy="-380.728" rx="4.00001" ry="4.00001"/>
<polygon fill="#fa6ce3" stroke="#fa6ce3" points="447.119,-335.608 453.399,-326.618 448.048,-330.695 448.977,-325.782 448.977,-325.782 448.977,-325.782 448.048,-330.695 444.556,-324.946 447.119,-335.608 447.119,-335.608"/>
<text text-anchor="middle" x="506.5" y="-347.8" font-family="Times New Roman,serif" font-size="14.00">reviewed_applications</text>
</g>
<!-- User&#45;&gt;Application -->
<g id="edge14" class="edge"><title>User&#45;&gt;Application</title>
<path fill="none" stroke="#678b0c" d="M219.264,-1000.22C170.166,-990.473 109.203,-969.24 77.5,-923 72.5962,-915.848 69.223,-907.869 67.0182,-899.507"/>
<ellipse fill="none" stroke="#678b0c" cx="223.416" cy="-1001.01" rx="4.00001" ry="4.00001"/>
<polygon fill="#678b0c" stroke="#678b0c" points="66.9816,-899.331 69.3506,-888.624 65.9633,-894.436 64.945,-889.54 64.945,-889.54 64.945,-889.54 65.9633,-894.436 60.5393,-890.457 66.9816,-899.331 66.9816,-899.331"/>
<text text-anchor="middle" x="126" y="-911.8" font-family="Times New Roman,serif" font-size="14.00">sent_applications</text>
</g>
<!-- User&#45;&gt;Conference -->
<g id="edge11" class="edge"><title>User&#45;&gt;Conference</title>
<path fill="none" stroke="#3b8955" d="M341.794,-932.791C356.944,-909.041 373.46,-883.149 387.852,-860.588"/>
<polygon fill="#3b8955" stroke="#3b8955" points="341.692,-932.951 332.52,-938.962 339.003,-937.166 336.314,-941.382 336.314,-941.382 336.314,-941.382 339.003,-937.166 340.108,-943.802 341.692,-932.951 341.692,-932.951"/>
<polygon fill="#3b8955" stroke="#3b8955" points="387.878,-860.546 397.05,-854.535 390.567,-856.331 393.256,-852.115 393.256,-852.115 393.256,-852.115 390.567,-856.331 389.462,-849.695 387.878,-860.546 387.878,-860.546"/>
<text text-anchor="middle" x="413.5" y="-911.8" font-family="Times New Roman,serif" font-size="14.00">created_conferences</text>
</g>
<!-- User&#45;&gt;Talk -->
<g id="edge15" class="edge"><title>User&#45;&gt;Talk</title>
<path fill="none" stroke="#99d7d8" d="M261.895,-933.988C256.352,-919.539 250.945,-904.407 246.5,-890 219.459,-802.343 207.466,-780.95 195.5,-690 187.496,-629.164 187.389,-559.321 188.913,-508.78"/>
<ellipse fill="none" stroke="#99d7d8" cx="263.354" cy="-937.746" rx="4.00001" ry="4.00001"/>
<polygon fill="#99d7d8" stroke="#99d7d8" points="188.919,-508.613 193.747,-498.768 189.084,-503.616 189.25,-498.619 189.25,-498.619 189.25,-498.619 189.084,-503.616 184.752,-498.47 188.919,-508.613 188.919,-508.613"/>
<text text-anchor="middle" x="227" y="-678.8" font-family="Times New Roman,serif" font-size="14.00">given_talks</text>
</g>
<!-- User&#45;&gt;Topic -->
<g id="edge13" class="edge"><title>User&#45;&gt;Topic</title>
<path fill="none" stroke="#e866f6" d="M268.027,-931.388C264.484,-917.741 261.407,-903.559 259.5,-890 248.236,-809.899 247.772,-788.034 259.5,-708 261.502,-694.335 264.917,-679.969 268.767,-666.435"/>
<polygon fill="#e866f6" stroke="#e866f6" points="268.073,-931.56 266.335,-942.387 269.376,-936.387 270.679,-941.214 270.679,-941.214 270.679,-941.214 269.376,-936.387 275.024,-940.042 268.073,-931.56 268.073,-931.56"/>
<polygon fill="#e866f6" stroke="#e866f6" points="268.795,-666.339 275.948,-658.026 270.214,-661.544 271.632,-656.75 271.632,-656.75 271.632,-656.75 270.214,-661.544 267.317,-655.473 268.795,-666.339 268.795,-666.339"/>
<text text-anchor="middle" x="305.5" y="-795.3" font-family="Times New Roman,serif" font-size="14.00">reviewed_topics</text>
</g>
<!-- User&#45;&gt;ConferenceCreator -->
<g id="edge10" class="edge"><title>User&#45;&gt;ConferenceCreator</title>
<path fill="none" stroke="#c949d5" d="M367.506,-992.57C419.075,-976.714 481.984,-946.307 501.5,-890 532.851,-799.549 525.839,-763.148 488.5,-675 487.242,-672.03 485.938,-668.996 484.609,-665.939"/>
<ellipse fill="none" stroke="#c949d5" cx="363.495" cy="-993.76" rx="4.00001" ry="4.00001"/>
<polygon fill="#c949d5" stroke="#c949d5" points="484.585,-665.884 484.683,-654.918 482.574,-661.306 480.563,-656.728 480.563,-656.728 480.563,-656.728 482.574,-661.306 476.443,-658.538 484.585,-665.884 484.585,-665.884"/>
</g>
<!-- User&#45;&gt;TopicReviewer -->
<g id="edge12" class="edge"><title>User&#45;&gt;TopicReviewer</title>
<path fill="none" stroke="#7dab4f" d="M367.511,-997.672C426.726,-984.256 503.25,-954.645 524.5,-890 571.713,-746.371 593.358,-689.682 535.5,-550 527.134,-529.803 513.113,-511.365 497.802,-495.566"/>
<ellipse fill="none" stroke="#7dab4f" cx="363.555" cy="-998.532" rx="4.00001" ry="4.00001"/>
<polygon fill="#7dab4f" stroke="#7dab4f" points="497.783,-495.548 493.865,-485.306 494.237,-492.022 490.692,-488.497 490.692,-488.497 490.692,-488.497 494.237,-492.022 487.519,-491.688 497.783,-495.548 497.783,-495.548"/>
</g>
</g>
</svg>
